# xmcd
# Track frame offsets:
# 150
# 16671
# 33798
# 52112
# 68931
# 93029
# 106515
# 120133
# 132598
# 151453
# 171190
# 182593
# 200753
# 218316
# 233994
#
# Disc length: 3366 seconds
# Revision: 0
# Processed by: cddbd v1.5.2PL0 Copyright (c) Steve Scherf et al.
# Submitted via: VisiTrax 2.10.0.248 - For more info visit www.synapsa.com
#
DISCID=b80d240f
DTITLE=McDonald, Forrest and Kaylon - There's Nothing Wrong With Dreaming
DYEAR=2007
DGENRE=Blues
TTITLE0=Gas Pump Blues
TTITLE1=You're My Dream
TTITLE2=I Want To Know
TTITLE3=Nothing Wrong With Dreaming
TTITLE4=I Feel So Bad
TTITLE5=I'll Be There For You
TTITLE6=Ride My Buggy
TTITLE7=Boy I'm Busy Now
TTITLE8=Good Hearted Woman
TTITLE9=Come Home To Me
TTITLE10=I'm Riding On Down
TTITLE11=I'm Ready
TTITLE12=Living My Dream
TTITLE13=You Still Got It Baby
TTITLE14=The World Is Waiting
EXTD=
EXTT0=
EXTT1=
EXTT2=
EXTT3=
EXTT4=
EXTT5=
EXTT6=
EXTT7=
EXTT8=
EXTT9=
EXTT10=
EXTT11=
EXTT12=
EXTT13=
EXTT14=
PLAYORDER=
